<svg xmlns="http://www.w3.org/2000/svg" viewBox="0 0 400 400">
  <path fill="#ffffff" d="
    M 204.5 62
    C 246.5 62 276.5 92 294.5 131
    C 318.5 182 321.5 242 312.5 290
    C 311.6 300.5 308 307.1 301.1 307.4
    C 296 308 289.4 307.4 284.9 305.9
    C 281 304.7 280.1 302 281.9 296
    C 285.5 279.5 286.4 263 285.5 250.4
    C 285.2 246.5 280.4 246.5 279.8 250.4
    C 278.9 271.1 275.6 297.2 269 319.4
    C 266.6 328.1 262.7 331.1 254.6 331.7
    C 246.2 332.3 235.7 331.1 228.8 329.6
    C 222.2 328.1 221.3 323.3 224 316.1
    C 233 290.9 238.1 269.6 238.4 252.8
    C 238.4 248.3 233.6 247.4 232.4 252.5
    C 230.9 272.3 224.9 298.4 213.5 327.2
    C 210.8 335 205.7 338 197.9 337.4
    C 186.2 336.8 171.5 334.4 161.9 331.4
    C 154.1 329 149 324.5 150.5 315.5
    C 155 287 161 249.8 161 207.2
    C 161 202.1 155.9 200.9 154.4 206.9
    C 152.3 220.1 152 234.2 147.8 244.4
    C 144.8 254.9 138.5 259.1 128 259.4
    C 118.1 259.7 106.1 259.1 98 255.2
    C 88.7 251 84.5 243.2 84.5 231.5
    C 83 191.6 106.4 142.7 134.3 99.8
    C 152.9 72.5 176.3 62 204.5 62 Z"/>
</svg>
